<svg xmlns="http://www.w3.org/2000/svg" width="500" height="500" style="width:100%;height:100%"><defs><filter id="a" filterUnits="objectBoundingBox" x="0%" y="0%" width="100%" height="100%"><feComponentTransfer in="SourceGraphic"><feFuncA type="table" tableValues="1.0 0.0"/></feComponentTransfer></filter><filter id="b" filterUnits="objectBoundingBox" x="0%" y="0%" width="100%" height="100%"><feComponentTransfer in="SourceGraphic"><feFuncA type="table" tableValues="1.0 0.0"/></feComponentTransfer></filter><mask id="e"><g filter="url(#a)"><path fill="#08A88A" d="M216.56 36.862s20.759-5.244 23.992-17.637c6.13 2.095 10.073 9.65 10.948 13.791v3.365s2.51-1.23 1.971-14.701c-.539-13.471-17.191-11.565-23.657-8.871-6.466 2.694-6.169-3.908-11.018-3.908-4.849 0-9.5 12.349-3.694 27.924l1.49.073-.032-.036z" transform="matrix(3.6 0 0 3.6 -592.4 42)" display="block"/></g></mask><mask id="d"><g filter="url(#b)"><path fill="#121331" d="M234.004 62.587c-9.663 0-17.497-7.833-17.497-17.496V34.248c0-9.663 7.834-17.496 17.497-17.496S251.5 24.585 251.5 34.248v10.843c0 9.663-7.833 17.496-17.496 17.496z" transform="matrix(3.6 0 0 3.6 -592.4 42)" display="block"/></g></mask><clipPath id="c"><path d="M0 0h500v500H0z"/></clipPath></defs><g clip-path="url(#c)"><g mask="url(#d)" display="block"><path stroke-miterlimit="10" stroke="#121331" stroke-width="12.6" d="M282.836 274.412l30.956 5.951c35.586 6.844 61.308 37.984 61.308 74.221v33.992c0 9.46-7.672 17.132-17.132 17.132H338.16a84.007 84.007 0 00-37.58 8.87s0 0 0 0a84.011 84.011 0 01-37.58 8.874h-27.75a84.011 84.011 0 01-37.58-8.874s0 0 0 0a84.007 84.007 0 00-37.58-8.87h-16.258c-9.46 0-17.132-7.672-17.132-17.132v-34.46c0-36.028 25.43-67.046 60.757-74.113l27.958-5.59" fill="none"/><path stroke-miterlimit="10" stroke="#121331" stroke-width="12.6" d="M283.275 232.357l-.44 43.83c0 18.62-15.09 33.71-33.71 33.71 0 0 0 0 0 0-18.619 0-33.71-15.09-33.71-33.71l.435-44.719" fill="none"/><path stroke-linecap="round" stroke-linejoin="round" stroke="#08A88A" stroke-width="12.6" d="M302.484 381.628s0 0 0 0c-10.45 0-18.928-8.475-18.928-18.926v-15.004c0-2.081 2.39-3.255 4.035-1.98l3.647 2.822a2.5 2.5 0 003.002.047l2.585-1.88a9.944 9.944 0 0111.441-.176l3.078 2.095c.925.63 2.156.57 3.013-.147l2.945-2.459c1.63-1.36 4.108-.202 4.108 1.922v14.76c0 10.451-8.475 18.926-18.926 18.926z" fill="none"/></g><g mask="url(#e)" display="block"><path stroke-miterlimit="10" stroke="#121331" stroke-width="12.6" d="M250.014 267.313s0 0 0 0c-34.786 0-62.989-28.199-62.989-62.985v-39.035c0-34.787 28.203-62.986 62.99-62.986 0 0 0 0 0 0 34.786 0 62.985 28.199 62.985 62.986v39.035c0 34.786-28.199 62.985-62.986 62.985z" fill="none"/></g><path stroke-linecap="round" stroke-linejoin="round" stroke="#08A88A" stroke-width="12.6" d="M187.216 174.703s74.732-18.878 86.371-63.493c22.068 7.542 36.263 34.74 39.413 49.648v12.114s9.036-4.428 7.096-52.924c-1.94-48.496-61.888-41.634-85.166-31.936-23.277 9.699-22.208-14.068-39.664-14.068-17.457 0-34.2 44.456-13.299 100.526l5.364.263-.115-.13z" fill="none" display="block"/></g></svg>